<svg xmlns="http://www.w3.org/2000/svg" version="1.1" xmlns:xlink="http://www.w3.org/1999/xlink" xmlns:svgjs="http://svgjs.dev/svgjs" width="1500" height="261" viewBox="0 0 1500 261"><g transform="matrix(1,0,0,1,-0.9090909090909918,-0.2541893617181472)"><svg viewBox="0 0 396 69" data-background-color="#103737" preserveAspectRatio="xMidYMid meet" height="261" width="1500" xmlns="http://www.w3.org/2000/svg" xmlns:xlink="http://www.w3.org/1999/xlink"><g id="tight-bounds" transform="matrix(1,0,0,1,0.2400000000000091,0.0671994864312353)"><svg viewBox="0 0 395.52 68.86560102713753" height="68.86560102713753" width="395.52"><g><svg viewBox="0 0 474.79895466462887 82.66918330308529" height="68.86560102713753" width="395.52"><g transform="matrix(1,0,0,1,79.2789546646289,11.425335753176043)"><svg viewBox="0 0 395.52 59.818511796733205" height="59.818511796733205" width="395.52"><g id="textblocktransform"><svg viewBox="0 0 395.52 59.818511796733205" height="59.818511796733205" width="395.52" id="textblock"><g><svg viewBox="0 0 395.52 59.818511796733205" height="59.818511796733205" width="395.52"><g transform="matrix(1,0,0,1,0,0)"><svg width="395.52" viewBox="3.75 -37 247.93 37.5" height="59.818511796733205" data-palette-color="#36bab8"><path d="M6.8-35L18.2-35Q20.8-35 23.08-33.5 25.35-32 26.75-29.45 28.15-26.9 28.15-23.75L28.15-23.75Q28.15-20.65 26.75-18.1 25.35-15.55 23.08-14.03 20.8-12.5 18.2-12.5L18.2-12.5 9-12.5 9.5-13.4 9.5-3.05Q9.5-1.75 8.7-0.88 7.9 0 6.6 0L6.6 0Q5.35 0 4.55-0.88 3.75-1.75 3.75-3.05L3.75-3.05 3.75-31.95Q3.75-33.25 4.63-34.13 5.5-35 6.8-35L6.8-35ZM8.95-18.2L18.2-18.2Q19.15-18.2 20.05-19 20.95-19.8 21.55-21.08 22.15-22.35 22.15-23.75L22.15-23.75Q22.15-25.2 21.55-26.45 20.95-27.7 20.05-28.48 19.15-29.25 18.2-29.25L18.2-29.25 8.9-29.25 9.5-30.15 9.5-17.4 8.95-18.2ZM36.4 0L36.4 0Q35.1 0 34.25-0.88 33.4-1.75 33.4-3.05L33.4-3.05 33.4-23.7Q33.4-25 34.25-25.88 35.1-26.75 36.4-26.75L36.4-26.75Q37.7-26.75 38.55-25.88 39.4-25 39.4-23.7L39.4-23.7 39.4-19 39.05-22.35Q39.6-23.55 40.47-24.48 41.35-25.4 42.45-26.03 43.55-26.65 44.8-26.95 46.05-27.25 47.3-27.25L47.3-27.25Q48.8-27.25 49.82-26.4 50.85-25.55 50.85-24.4L50.85-24.4Q50.85-22.75 50-22.03 49.15-21.3 48.15-21.3L48.15-21.3Q47.2-21.3 46.42-21.65 45.65-22 44.65-22L44.65-22Q43.75-22 42.82-21.58 41.9-21.15 41.12-20.25 40.35-19.35 39.87-18.03 39.4-16.7 39.4-14.9L39.4-14.9 39.4-3.05Q39.4-1.75 38.55-0.88 37.7 0 36.4 0ZM79.7-13.35L79.7-13.35Q79.7-9.25 77.87-6.13 76.05-3 72.97-1.25 69.9 0.5 66.09 0.5L66.09 0.5Q62.3 0.5 59.22-1.25 56.15-3 54.32-6.13 52.5-9.25 52.5-13.35L52.5-13.35Q52.5-17.45 54.32-20.58 56.15-23.7 59.22-25.48 62.3-27.25 66.09-27.25L66.09-27.25Q69.9-27.25 72.97-25.48 76.05-23.7 77.87-20.58 79.7-17.45 79.7-13.35ZM73.7-13.35L73.7-13.35Q73.7-15.9 72.67-17.78 71.65-19.65 69.92-20.7 68.2-21.75 66.09-21.75L66.09-21.75Q64-21.75 62.27-20.7 60.55-19.65 59.52-17.78 58.5-15.9 58.5-13.35L58.5-13.35Q58.5-10.85 59.52-8.97 60.55-7.1 62.27-6.05 64-5 66.09-5L66.09-5Q68.2-5 69.92-6.05 71.65-7.1 72.67-8.97 73.7-10.85 73.7-13.35ZM98.44-37L98.44-37Q99.54-37 100.59-36.7 101.64-36.4 102.34-35.73 103.04-35.05 103.04-33.95L103.04-33.95Q103.04-32.7 102.32-31.98 101.59-31.25 100.64-31.25L100.64-31.25Q100.19-31.25 99.29-31.48 98.39-31.7 97.54-31.7L97.54-31.7Q96.29-31.7 95.62-31.15 94.94-30.6 94.69-29.88 94.44-29.15 94.44-28.6L94.44-28.6 94.44-3.05Q94.44-1.75 93.59-0.88 92.74 0 91.44 0L91.44 0Q90.14 0 89.29-0.88 88.44-1.75 88.44-3.05L88.44-3.05 88.44-28.55Q88.44-32.1 90.94-34.55 93.44-37 98.44-37ZM85.74-26.25L98.99-26.25Q100.19-26.25 100.99-25.48 101.79-24.7 101.79-23.5L101.79-23.5Q101.79-22.3 100.99-21.53 100.19-20.75 98.99-20.75L98.99-20.75 85.74-20.75Q84.54-20.75 83.74-21.53 82.94-22.3 82.94-23.5L82.94-23.5Q82.94-24.7 83.74-25.48 84.54-26.25 85.74-26.25L85.74-26.25ZM111.19-23.7L111.19-3.05Q111.19-1.75 110.34-0.88 109.49 0 108.19 0L108.19 0Q106.89 0 106.04-0.88 105.19-1.75 105.19-3.05L105.19-3.05 105.19-23.7Q105.19-25 106.04-25.88 106.89-26.75 108.19-26.75L108.19-26.75Q109.49-26.75 110.34-25.88 111.19-25 111.19-23.7L111.19-23.7ZM108.14-30L108.14-30Q106.44-30 105.74-30.55 105.04-31.1 105.04-32.5L105.04-32.5 105.04-33.45Q105.04-34.9 105.82-35.43 106.59-35.95 108.19-35.95L108.19-35.95Q109.94-35.95 110.64-35.4 111.34-34.85 111.34-33.45L111.34-33.45 111.34-32.5Q111.34-31.05 110.59-30.53 109.84-30 108.14-30ZM129.69 0.5L129.69 0.5Q125.44 0.5 122.31-1.28 119.19-3.05 117.51-6.1 115.84-9.15 115.84-13L115.84-13Q115.84-17.5 117.66-20.68 119.49-23.85 122.44-25.55 125.39-27.25 128.69-27.25L128.69-27.25Q131.24-27.25 133.51-26.2 135.79-25.15 137.54-23.33 139.29-21.5 140.31-19.1 141.34-16.7 141.34-14L141.34-14Q141.29-12.8 140.39-12.05 139.49-11.3 138.29-11.3L138.29-11.3 119.19-11.3 117.69-16.3 136.04-16.3 134.94-15.3 134.94-16.65Q134.84-18.1 133.91-19.25 132.99-20.4 131.61-21.08 130.24-21.75 128.69-21.75L128.69-21.75Q127.19-21.75 125.89-21.35 124.59-20.95 123.64-20 122.69-19.05 122.14-17.45 121.59-15.85 121.59-13.4L121.59-13.4Q121.59-10.7 122.71-8.83 123.84-6.95 125.61-5.98 127.39-5 129.39-5L129.39-5Q131.24-5 132.34-5.3 133.44-5.6 134.11-6.03 134.79-6.45 135.34-6.75L135.34-6.75Q136.24-7.2 137.04-7.2L137.04-7.2Q138.14-7.2 138.86-6.45 139.59-5.7 139.59-4.7L139.59-4.7Q139.59-3.35 138.19-2.25L138.19-2.25Q136.89-1.15 134.54-0.33 132.19 0.5 129.69 0.5ZM152.84-33.95L152.84-3.05Q152.84-1.75 151.96-0.88 151.09 0 149.79 0L149.79 0Q148.54 0 147.69-0.88 146.84-1.75 146.84-3.05L146.84-3.05 146.84-33.95Q146.84-35.25 147.71-36.13 148.59-37 149.89-37L149.89-37Q151.19-37 152.01-36.13 152.84-35.25 152.84-33.95L152.84-33.95ZM163.38-35L174.78-35Q177.38-35 179.66-33.5 181.93-32 183.33-29.45 184.73-26.9 184.73-23.75L184.73-23.75Q184.73-20.65 183.33-18.1 181.93-15.55 179.66-14.03 177.38-12.5 174.78-12.5L174.78-12.5 165.58-12.5 166.08-13.4 166.08-3.05Q166.08-1.75 165.28-0.88 164.48 0 163.18 0L163.18 0Q161.93 0 161.13-0.88 160.33-1.75 160.33-3.05L160.33-3.05 160.33-31.95Q160.33-33.25 161.21-34.13 162.08-35 163.38-35L163.38-35ZM165.53-18.2L174.78-18.2Q175.73-18.2 176.63-19 177.53-19.8 178.13-21.08 178.73-22.35 178.73-23.75L178.73-23.75Q178.73-25.2 178.13-26.45 177.53-27.7 176.63-28.48 175.73-29.25 174.78-29.25L174.78-29.25 165.48-29.25 166.08-30.15 166.08-17.4 165.53-18.2ZM196.48-33.95L196.48-3.05Q196.48-1.75 195.61-0.88 194.73 0 193.43 0L193.43 0Q192.18 0 191.33-0.88 190.48-1.75 190.48-3.05L190.48-3.05 190.48-33.95Q190.48-35.25 191.36-36.13 192.23-37 193.53-37L193.53-37Q194.83-37 195.66-36.13 196.48-35.25 196.48-33.95L196.48-33.95ZM223.08-26.75L223.08-26.75Q224.38-26.75 225.23-25.88 226.08-25 226.08-23.7L226.08-23.7 226.08-11Q226.08-5.7 223.13-2.6 220.18 0.5 214.63 0.5L214.63 0.5Q209.08 0.5 206.15-2.6 203.23-5.7 203.23-11L203.23-11 203.23-23.7Q203.23-25 204.08-25.88 204.93-26.75 206.23-26.75L206.23-26.75Q207.53-26.75 208.38-25.88 209.23-25 209.23-23.7L209.23-23.7 209.23-11Q209.23-7.95 210.58-6.48 211.93-5 214.63-5L214.63-5Q217.38-5 218.73-6.48 220.08-7.95 220.08-11L220.08-11 220.08-23.7Q220.08-25 220.93-25.88 221.78-26.75 223.08-26.75ZM231.03-4.15L231.03-4.15Q230.53-4.85 230.58-5.95 230.63-7.05 231.88-7.85L231.88-7.85Q232.68-8.35 233.58-8.28 234.48-8.2 235.33-7.35L235.33-7.35Q236.78-5.9 238.38-5.1 239.98-4.3 242.38-4.3L242.38-4.3Q243.13-4.35 244.03-4.53 244.93-4.7 245.6-5.33 246.28-5.95 246.28-7.25L246.28-7.25Q246.28-8.35 245.53-9 244.78-9.65 243.55-10.1 242.33-10.55 240.83-10.95L240.83-10.95Q239.28-11.4 237.65-11.95 236.03-12.5 234.68-13.38 233.33-14.25 232.48-15.7 231.63-17.15 231.63-19.35L231.63-19.35Q231.63-21.85 233.03-23.6 234.43-25.35 236.65-26.3 238.88-27.25 241.33-27.25L241.33-27.25Q242.88-27.25 244.58-26.88 246.28-26.5 247.83-25.68 249.38-24.85 250.43-23.5L250.43-23.5Q250.98-22.75 251.08-21.7 251.18-20.65 250.13-19.8L250.13-19.8Q249.38-19.2 248.38-19.28 247.38-19.35 246.73-19.95L246.73-19.95Q245.88-21.05 244.45-21.7 243.03-22.35 241.18-22.35L241.18-22.35Q240.43-22.35 239.55-22.18 238.68-22 238.03-21.43 237.38-20.85 237.38-19.6L237.38-19.6Q237.38-18.45 238.13-17.78 238.88-17.1 240.15-16.68 241.43-16.25 242.88-15.85L242.88-15.85Q244.38-15.45 245.93-14.9 247.48-14.35 248.78-13.45 250.08-12.55 250.88-11.13 251.68-9.7 251.68-7.5L251.68-7.5Q251.68-4.95 250.18-3.15 248.68-1.35 246.43-0.43 244.18 0.5 241.83 0.5L241.83 0.5Q238.88 0.5 235.93-0.53 232.98-1.55 231.03-4.15Z" opacity="1" transform="matrix(1,0,0,1,0,0)" fill="#36bab8" class="wordmark-text-0" data-fill-palette-color="primary" id="text-0"></path></svg></g></svg></g></svg></g></svg></g><g><svg viewBox="0 0 65.15723967370332 82.66918330308529" height="82.66918330308529" width="65.15723967370332"><g><svg xmlns="http://www.w3.org/2000/svg" xmlns:xlink="http://www.w3.org/1999/xlink" version="1.1" x="0" y="0" viewBox="12.562 2.5 74.876 95" enable-background="new 0 0 100 100" xml:space="preserve" height="82.66918330308529" width="65.15723967370332" class="icon-icon-0" data-fill-palette-color="accent" id="icon-0"><g fill="#49cac8" data-fill-palette-color="accent"><path d="M26.917 73.078h46.167c0.816 0 1.48-0.664 1.48-1.48 0-0.817-0.664-1.481-1.48-1.481H26.917c-0.816 0-1.481 0.664-1.481 1.481C25.436 72.414 26.1 73.078 26.917 73.078z" fill="#49cac8" data-fill-palette-color="accent"></path><path d="M26.917 82.074h46.167c0.816 0 1.48-0.664 1.48-1.48 0-0.815-0.664-1.479-1.48-1.479H26.917c-0.816 0-1.481 0.664-1.481 1.479C25.436 81.41 26.1 82.074 26.917 82.074z" fill="#49cac8" data-fill-palette-color="accent"></path><g fill="#49cac8" data-fill-palette-color="accent"><path d="M43.189 44.454c2.215 0.41 4.692 0.444 6.841 0.444 4.417 0 10.396-0.285 11.343-2.743 0.275-0.704 0.143-1.924-0.002-2.353-0.664-1.974-3.602-3.268-5.18-3.962-0.113-0.05-0.246-0.101-0.396-0.157l-0.182-0.067c-1.08-0.398-2.561-0.943-2.82-1.93-0.338-1.29 0.463-2.332 1.17-3.25 0.266-0.349 0.504-0.658 0.674-0.964 0.73-1.304 1.271-2.979 1.377-4.266 0.188-2.31-0.354-4.224-1.566-5.536-1.051-1.141-2.545-1.745-4.32-1.745-0.312 0-0.629 0.019-0.948 0.055-2.953 0.34-4.917 2.497-5.125 5.632-0.172 2.53 0.54 4.851 2.176 7.096 0.091 0.126 0.182 0.242 0.269 0.354l0.042 0.054c0.445 0.565 0.906 1.148 0.816 2.055-0.119 1.217-1.288 1.661-2.062 1.954l-0.302 0.117c-0.871 0.35-1.846 0.89-2.37 1.18l-0.137 0.075c-1.667 0.923-3.479 2.027-3.861 3.431-0.266 0.98-0.195 1.777 0.218 2.433C39.664 43.67 41.716 44.182 43.189 44.454z" fill="#49cac8" data-fill-palette-color="accent"></path><path d="M20.287 97.5h59.428c4.264 0 7.723-3.459 7.723-7.724V10.225c0-4.266-3.459-7.725-7.723-7.725H20.287c-4.266 0-7.725 3.459-7.725 7.725v79.552C12.563 94.041 16.021 97.5 20.287 97.5zM37.77 39.698c0.472-1.738 2.46-2.963 4.288-3.976l0.134-0.073c0.542-0.3 1.549-0.858 2.476-1.23l0.31-0.12c0.813-0.308 1.437-0.592 1.497-1.213 0.053-0.525-0.192-0.865-0.629-1.419l-0.044-0.057c-0.095-0.121-0.193-0.247-0.289-0.38-1.763-2.418-2.529-4.929-2.342-7.675 0.238-3.588 2.502-6.062 5.908-6.453 0.352-0.041 0.705-0.061 1.049-0.061 2.029 0 3.75 0.702 4.974 2.031 1.383 1.498 2.002 3.644 1.797 6.208-0.115 1.405-0.701 3.222-1.488 4.628-0.203 0.361-0.457 0.694-0.727 1.047-0.656 0.854-1.26 1.639-1.031 2.509 0.139 0.54 1.576 1.069 2.268 1.323l0.152 0.056c0.203 0.077 0.352 0.133 0.473 0.186 1.707 0.752 4.879 2.147 5.666 4.492 0.178 0.53 0.367 1.989-0.012 2.957-1.123 2.915-6.783 3.309-12.169 3.309-2.188 0-4.713-0.035-7.002-0.459-1.637-0.302-3.929-0.89-4.936-2.491C37.541 41.957 37.436 40.931 37.77 39.698zM26.917 60.233h46.167c1.305 0 2.367 1.062 2.367 2.366 0 1.306-1.063 2.368-2.367 2.368H26.917c-1.305 0-2.366-1.063-2.366-2.368C24.55 61.295 25.612 60.233 26.917 60.233zM26.917 69.231h46.167c1.305 0 2.367 1.061 2.367 2.366 0 1.305-1.063 2.366-2.367 2.366H26.917c-1.305 0-2.366-1.062-2.366-2.366C24.55 70.292 25.612 69.231 26.917 69.231zM26.917 78.228h46.167c1.305 0 2.367 1.063 2.367 2.366 0 1.306-1.063 2.367-2.367 2.367H26.917c-1.305 0-2.366-1.062-2.366-2.367C24.55 79.29 25.612 78.228 26.917 78.228z" fill="#49cac8" data-fill-palette-color="accent"></path></g><path d="M26.917 64.081h46.167c0.816 0 1.48-0.664 1.48-1.481 0-0.815-0.664-1.479-1.48-1.479H26.917c-0.816 0-1.481 0.663-1.481 1.479C25.436 63.417 26.1 64.081 26.917 64.081z" fill="#49cac8" data-fill-palette-color="accent"></path></g></svg></g></svg></g></svg></g><defs></defs></svg><rect width="395.52" height="68.86560102713753" fill="none" stroke="none" visibility="hidden"></rect></g></svg></g></svg>